<?xml version="1.0" standalone="no"?>
<!DOCTYPE svg PUBLIC "-//W3C//DTD SVG 20010904//EN"
 "http://www.w3.org/TR/2001/REC-SVG-20010904/DTD/svg10.dtd">
<svg version="1.0" xmlns="http://www.w3.org/2000/svg"
 width="1800.000000pt" height="1800.000000pt" viewBox="0 0 1800.000000 1800.000000"
 preserveAspectRatio="xMidYMid meet">
<metadata>
Created by potrace 1.14, written by Peter Selinger 2001-2017
</metadata>
<g transform="translate(0.000000,1800.000000) scale(0.100000,-0.100000)"
fill="#000000" stroke="none">
<path d="M8935 14718 c-68 -40 -485 -281 -555 -320 -35 -20 -225 -130 -680
-393 -135 -78 -380 -220 -545 -315 -473 -272 -622 -358 -745 -430 -63 -37
-356 -206 -650 -375 -294 -169 -584 -337 -645 -372 -60 -35 -330 -191 -600
-347 l-490 -283 -3 -2885 -2 -2886 412 -238 c227 -130 465 -267 528 -304 110
-64 206 -119 645 -373 110 -63 331 -190 490 -283 297 -171 387 -223 745 -429
113 -65 275 -159 360 -208 85 -50 211 -123 280 -162 69 -40 229 -131 355 -205
437 -252 481 -278 775 -447 162 -94 320 -185 350 -203 42 -25 58 -30 71 -22 9
6 106 62 215 125 110 63 303 174 429 247 127 73 313 181 415 240 102 58 376
217 610 352 234 135 486 280 560 323 74 43 293 169 485 280 471 272 1428 824
2050 1183 l210 121 0 2887 0 2888 -245 141 c-135 78 -396 228 -580 335 -433
249 -1184 683 -1420 820 -102 59 -511 295 -910 525 -399 230 -867 500 -1040
600 -649 375 -789 455 -797 455 -4 0 -39 -19 -78 -42z m456 -2862 c648 -90
1214 -370 1669 -826 370 -370 625 -814 755 -1315 71 -273 90 -431 89 -740 -1
-285 -18 -434 -80 -683 -257 -1040 -1057 -1845 -2096 -2111 -254 -65 -422 -85
-708 -85 -304 -1 -465 19 -735 89 -501 130 -945 385 -1315 755 -464 464 -741
1034 -832 1710 -16 125 -16 546 0 670 32 235 86 460 155 650 321 883 1051
1557 1956 1806 177 49 325 74 566 98 83 8 474 -4 576 -18z"/>
</g>
</svg>
